<svg id="visual" viewBox="0 0 900 600" width="900" height="600" xmlns="http://www.w3.org/2000/svg" xmlns:xlink="http://www.w3.org/1999/xlink" version="1.1"><rect x="0" y="0" width="900" height="600" fill="#001220"></rect><defs><linearGradient id="grad1_0" x1="33.3%" y1="0%" x2="100%" y2="100%"><stop offset="20%" stop-color="#001220" stop-opacity="1"></stop><stop offset="80%" stop-color="#001220" stop-opacity="1"></stop></linearGradient></defs><defs><linearGradient id="grad2_0" x1="0%" y1="0%" x2="66.7%" y2="100%"><stop offset="20%" stop-color="#001220" stop-opacity="1"></stop><stop offset="80%" stop-color="#001220" stop-opacity="1"></stop></linearGradient></defs><g transform="translate(900, 0)"><path d="M0 486.7C-69.4 486.3 -138.9 485.8 -186.3 449.7C-233.7 413.6 -259.1 342 -290.6 290.6C-322.2 239.2 -359.9 208.1 -393.6 163C-427.3 118 -457 59 -486.7 0L0 0Z" fill="#FBAE3C"></path></g><g transform="translate(0, 600)"><path d="M0 -486.7C65.7 -475.6 131.3 -464.4 178.7 -431.5C226.1 -398.5 255.2 -343.7 302.6 -302.6C350.1 -261.6 416 -234.4 449.7 -186.3C483.4 -138.1 485.1 -69.1 486.7 0L0 0Z" fill="#FBAE3C"></path></g></svg>